<svg width="22" height="23" viewBox="0 0 22 23" fill="none" xmlns="http://www.w3.org/2000/svg">
<path d="M11 0C4.93471 0 0 5.15901 0 11.5C0 17.841 4.93471 23 11 23C17.0653 23 22 17.841 22 11.5C22 5.15901 17.0653 0 11 0ZM11 21.5625C5.69268 21.5625 1.37501 17.0486 1.37501 11.5C1.37501 5.95144 5.69268 1.43751 11 1.43751C16.3073 1.43751 20.625 5.95144 20.625 11.5C20.625 17.0486 16.3073 21.5625 11 21.5625Z" fill="#565656"/>
<path d="M11.6875 4.3125H10.3125V11.7976L14.6389 16.3207L15.6111 15.3043L11.6875 11.2024V4.3125Z" fill="#565656"/>
</svg>
