<svg width="22" height="21" viewBox="0 0 22 21" fill="none" xmlns="http://www.w3.org/2000/svg">
<path d="M11.9796 5.76423C11.4339 6.28398 10.5495 6.28398 10.0039 5.76423C9.45835 5.24449 9.45835 4.40174 10.0039 3.882C10.5495 3.36225 11.4339 3.36225 11.9796 3.882C12.5251 4.40174 12.5251 5.24449 11.9796 5.76423Z" fill="#565656"/>
<path d="M13.8906 7.78082C13.7204 7.78082 13.5502 7.71881 13.4206 7.59464C13.1615 7.34695 13.162 6.9456 13.4215 6.69839C13.9473 6.19739 14.2369 5.53137 14.2369 4.82305C14.2369 4.11473 13.9473 3.4487 13.4215 2.9477C13.162 2.70033 13.1615 2.29914 13.4206 2.05129C13.6796 1.80359 14.1001 1.80311 14.3596 2.05049C15.1369 2.79101 15.5649 3.77555 15.5649 4.82305C15.5649 5.87039 15.1369 6.85508 14.3596 7.5956C14.23 7.71913 14.0603 7.78082 13.8906 7.78082Z" fill="#565656"/>
<path d="M15.394 9.64769C15.2238 9.64769 15.0536 9.58568 14.9241 9.46167C14.6649 9.21382 14.6654 8.81263 14.9249 8.56526C15.9739 7.56582 16.5518 6.23714 16.5518 4.82386C16.5518 3.41059 15.9739 2.0819 14.9249 1.08247C14.6654 0.835093 14.6649 0.433909 14.9241 0.186053C15.1832 -0.0616433 15.6035 -0.0621239 15.863 0.185252C17.1635 1.42421 17.8798 3.07157 17.8797 4.82386C17.8797 6.57616 17.1635 8.22367 15.863 9.46263C15.7334 9.586 15.5637 9.64769 15.394 9.64769Z" fill="#565656"/>
<path d="M8.09339 7.78087C7.92369 7.78087 7.754 7.71919 7.62425 7.59566C6.84695 6.85514 6.41895 5.87045 6.41895 4.82311C6.41895 3.7756 6.84695 2.79107 7.62425 2.05055C7.88375 1.80317 8.3042 1.80349 8.56319 2.05135C8.82235 2.29904 8.82184 2.70039 8.56235 2.94776C8.03649 3.44876 7.74695 4.11478 7.74695 4.82311C7.74695 5.53143 8.03649 6.19745 8.56235 6.69845C8.82184 6.94566 8.82235 7.34701 8.56319 7.5947C8.43361 7.71871 8.26341 7.78087 8.09339 7.78087Z" fill="#565656"/>
<path d="M6.59177 9.64777C6.42191 9.64777 6.25221 9.58608 6.12264 9.46255C4.82216 8.22359 4.10596 6.57624 4.10596 4.82394C4.10596 3.07149 4.82216 1.42413 6.12264 0.185171C6.38213 -0.0620438 6.80258 -0.0617234 7.06157 0.186133C7.32073 0.433829 7.32022 0.835013 7.06073 1.08239C6.01169 2.08182 5.43379 3.41051 5.43379 4.82378C5.43379 6.23706 6.01169 7.5659 7.06073 8.56534C7.32022 8.81271 7.32073 9.2139 7.06157 9.46175C6.93199 9.58576 6.7618 9.64777 6.59177 9.64777Z" fill="#565656"/>
<path d="M19.7437 10.7441H2.24124C1.38338 10.7441 0.687988 11.4079 0.687988 12.2266V19.5179C0.687988 20.3368 1.38338 21.0006 2.24124 21.0006H19.7436C20.6014 21.0006 21.2968 20.3368 21.2968 19.5179V12.2266C21.2968 11.4079 20.6014 10.7441 19.7437 10.7441ZM5.79572 19.0983H3.34936C2.98278 19.0983 2.68553 18.8146 2.68553 18.4645V13.2802C2.68553 12.9303 2.98278 12.6464 3.34936 12.6464C3.7161 12.6464 4.01336 12.9301 4.01336 13.2802V17.8307H5.79572C6.16246 17.8307 6.45972 18.1144 6.45972 18.4645C6.45972 18.8146 6.16246 19.0983 5.79572 19.0983ZM8.51684 18.4645C8.51684 18.8146 8.21959 19.0983 7.85284 19.0983C7.4861 19.0983 7.18884 18.8146 7.18884 18.4645V13.2802C7.18884 12.9303 7.4861 12.6464 7.85284 12.6464C8.21959 12.6464 8.51684 12.9301 8.51684 13.2802V18.4645ZM14.1034 13.4635L12.4637 18.6476C12.4636 18.6481 12.4634 18.6486 12.4632 18.6491C12.2852 19.2292 11.3773 19.215 11.193 18.6491C11.1928 18.6486 11.1926 18.6481 11.1925 18.6476L9.55279 13.4635C9.44688 13.1283 9.64544 12.7747 9.99658 12.6735C10.3474 12.5724 10.7181 12.7619 10.8241 13.0971L11.8281 16.2715L12.8322 13.0971C12.9383 12.7619 13.3087 12.5722 13.6598 12.6735C14.0108 12.7747 14.2095 13.1283 14.1034 13.4635ZM18.1883 14.9122C18.5551 14.9122 18.8523 15.1959 18.8523 15.546C18.8523 15.8959 18.5551 16.1798 18.1883 16.1798H16.3041V17.8307H18.546C18.9127 17.8307 19.21 18.1144 19.21 18.4645C19.21 18.8146 18.9127 19.0983 18.546 19.0983H15.6401C15.2733 19.0983 14.9761 18.8146 14.9761 18.4645V13.2802C14.9761 12.9303 15.2733 12.6464 15.6401 12.6464H18.6355C19.002 12.6464 19.2995 12.9301 19.2995 13.2802C19.2995 13.6303 19.002 13.914 18.6355 13.914H16.3039V14.9122H18.1883Z" fill="#565656"/>
</svg>
