<svg width="21" height="21" viewBox="0 0 21 21" fill="none" xmlns="http://www.w3.org/2000/svg">
<path d="M10.5 0C4.70995 0 0 4.70995 0 10.5C0 16.2901 4.70995 21 10.5 21C16.2901 21 21 16.2892 21 10.5C21 4.71077 16.2901 0 10.5 0ZM10.5 19.3734C5.60786 19.3734 1.62664 15.393 1.62664 10.5C1.62664 5.60704 5.60786 1.62664 10.5 1.62664C15.3921 1.62664 19.3734 5.60704 19.3734 10.5C19.3734 15.393 15.393 19.3734 10.5 19.3734Z" fill="#565656"/>
<path d="M14.5662 9.61349H11.3129V6.36021C11.3129 5.91126 10.9494 5.54688 10.4996 5.54688C10.0498 5.54688 9.68625 5.91126 9.68625 6.36021V9.61349H6.43297C5.98319 9.61349 5.61963 9.97787 5.61963 10.4268C5.61963 10.8758 5.98319 11.2402 6.43297 11.2402H9.68625V14.4934C9.68625 14.9424 10.0498 15.3068 10.4996 15.3068C10.9494 15.3068 11.3129 14.9424 11.3129 14.4934V11.2402H14.5662C15.016 11.2402 15.3795 10.8758 15.3795 10.4268C15.3795 9.97787 15.016 9.61349 14.5662 9.61349Z" fill="#565656"/>
</svg>
