<svg width="19" height="22" viewBox="0 0 19 22" fill="none" xmlns="http://www.w3.org/2000/svg">
<path d="M13.5032 11.3548C13.6853 11.3548 13.8614 11.4165 14.0131 11.5336L16.1534 13.1859C16.4062 13.3806 16.7001 13.4839 17.0034 13.4839H19V12.7742H17.0037C16.8218 12.7742 16.6452 12.7125 16.4935 12.5954L15.629 11.928V0H3.98387V2.12903H0V22H11.6452V19.871H15.629V16.8857C15.6483 16.8803 15.6682 16.8786 15.6875 16.8732L17.1131 16.4607C17.4294 16.369 17.7549 16.3226 18.0806 16.3226H19V15.6129H18.0806C17.7049 15.6129 17.3292 15.6664 16.9645 15.772L15.539 16.1845C14.8062 16.3964 14.0263 16.3619 13.3104 16.0856L12.7941 15.8861C12.3239 15.7047 11.8343 15.6129 11.3387 15.6129H8.66459C8.66459 15.0261 9.07713 14.5484 9.58395 14.5484H12.9549C13.4619 14.5484 13.8743 14.0707 13.8743 13.4839C13.8743 12.9395 13.5181 12.4945 13.0625 12.4318L13.314 11.3548H13.5032ZM13.1161 16.7587C13.5862 16.9404 14.076 17.0323 14.5714 17.0323C14.7202 17.0323 14.8684 17.0174 15.0161 17.0007V19.1613H11.6452V18.0006C11.7527 17.857 11.8361 17.687 11.8808 17.4947L12.1318 16.4184C12.2896 16.4556 12.4462 16.5 12.5998 16.5596L13.1161 16.7587ZM11.5177 16.3307L11.2893 17.3093C11.2299 17.5642 11.0293 17.7419 10.8015 17.7419H10.7022C10.4237 17.7419 10.1971 17.4798 10.1971 17.1572C10.1971 17.1054 10.203 17.0543 10.2147 17.0045L10.3737 16.3226H11.3387C11.3984 16.3226 11.458 16.328 11.5177 16.3307ZM9.73867 16.3226L9.62285 16.819C9.59711 16.929 9.58424 17.0425 9.58424 17.1572C9.58424 17.6369 9.81348 18.0517 10.1491 18.2752L10.0529 18.7202L10.6474 18.8924L10.7427 18.4516H10.8015C10.8805 18.4516 10.9571 18.4388 11.0323 18.4204V21.2903H0.612903V2.83871H4.59677V0.709677H15.0161V11.455L14.3532 10.9432C14.1005 10.7484 13.8066 10.6452 13.5032 10.6452H13.4795L14.755 5.18103C14.7808 5.07101 14.7936 4.95752 14.7936 4.84282C14.7936 4.12898 14.292 3.54839 13.6757 3.54839H13.5763C13.0724 3.54839 12.6286 3.94186 12.497 4.50531L11.6452 8.15523V2.12903H5.20968V2.83871H11.0323V10.6452H10.3983C10.0647 10.6452 9.75064 10.7732 9.48803 11H6.43548V11.7097H8.84415L8.23125 12.4194H6.43548V13.129H7.61864L7.1066 13.7219C6.92584 13.9309 6.82618 14.2091 6.82618 14.5054C6.82618 15.1162 7.25518 15.6129 7.78294 15.6129C7.87736 15.6129 7.96834 15.5919 8.05663 15.5614C8.05633 15.5788 8.05199 15.5952 8.05199 15.6129C8.05199 16.0043 8.32687 16.3226 8.66489 16.3226H9.73867ZM12.0993 13.8387H10.9536L12.2476 8.2947L13.2988 8.7003L12.0993 13.8387ZM9.74824 11.6664C9.91958 11.4683 10.1564 11.3548 10.3983 11.3548H10.8983L10.6483 12.4258C10.2606 12.4421 9.89713 12.6195 9.62135 12.9388L8.02565 14.7864C7.96161 14.8606 7.87302 14.9032 7.78264 14.9032C7.59291 14.9032 7.43878 14.7248 7.43878 14.5054C7.43878 14.399 7.4747 14.2992 7.53964 14.224L9.74824 11.6664ZM10.0547 13.4406C10.1705 13.3065 10.3179 13.215 10.4752 13.1673L10.3185 13.8387H9.71113L10.0547 13.4406ZM14.1632 4.99581L13.7879 6.6035L12.7367 6.1979L13.0885 4.6907C13.1482 4.43583 13.3488 4.25806 13.5763 4.25806H13.6757C13.9543 4.25806 14.1807 4.52021 14.1807 4.84282C14.1807 4.89463 14.1749 4.94574 14.1632 4.99581ZM12.5768 6.88418L13.628 7.28979L13.4587 8.01402L12.4075 7.60841L12.5768 6.88418ZM12.9549 13.129C13.1239 13.129 13.2614 13.2884 13.2614 13.4839C13.2614 13.6793 13.1239 13.8387 12.9549 13.8387H12.7341L12.8998 13.129H12.9549Z" fill="#565656"/>
<path d="M9.19382 3.54883H1.22607V7.09722H9.19382V3.54883ZM8.58091 6.38754H1.83898V4.25851H8.58091V6.38754Z" fill="#565656"/>
<path d="M2.45361 4.9668H3.06652V5.67647H2.45361V4.9668Z" fill="#565656"/>
<path d="M3.67969 4.9668H4.29259V5.67647H3.67969V4.9668Z" fill="#565656"/>
<path d="M4.90234 4.9668H5.51525V5.67647H4.90234V4.9668Z" fill="#565656"/>
<path d="M6.12891 4.9668H6.74181V5.67647H6.12891V4.9668Z" fill="#565656"/>
<path d="M7.354 4.9668H7.96691V5.67647H7.354V4.9668Z" fill="#565656"/>
<path d="M4.90349 11.3556H4.29059V12.775H1.83898V9.93624H3.67769V9.22656H1.22607V13.4846H4.90349V11.3556Z" fill="#565656"/>
<path d="M5.91277 7.91016L3.06493 11.2077L2.66869 10.7489L2.23535 11.2506L3.06493 12.2112L6.34611 8.41192L5.91277 7.91016Z" fill="#565656"/>
<path d="M4.29059 18.8062H1.83898V15.9675H3.67769V15.2578H1.22607V19.5159H4.90349V17.3868H4.29059V18.8062Z" fill="#565656"/>
<path d="M2.66869 16.7821L2.23535 17.2838L3.06493 18.2444L6.34611 14.4451L5.91277 13.9434L3.06493 17.2409L2.66869 16.7821Z" fill="#565656"/>
<path d="M9.80762 19.5156H10.4205V20.2253H9.80762V19.5156Z" fill="#565656"/>
<path d="M5.82031 19.5156H9.19128V20.2253H5.82031V19.5156Z" fill="#565656"/>
<path d="M6.43652 9.58008H10.4204V10.2898H6.43652V9.58008Z" fill="#565656"/>
</svg>
