<svg width="22" height="22" viewBox="0 0 22 22" fill="none" xmlns="http://www.w3.org/2000/svg">
<path d="M9.625 5.84375C9.81485 5.84375 9.96875 5.68985 9.96875 5.5C9.96875 5.31015 9.81485 5.15625 9.625 5.15625C9.43515 5.15625 9.28125 5.31015 9.28125 5.5C9.28125 5.68985 9.43515 5.84375 9.625 5.84375Z" fill="#565656"/>
<path d="M12.375 5.84375C12.5648 5.84375 12.7188 5.68985 12.7188 5.5C12.7188 5.31015 12.5648 5.15625 12.375 5.15625C12.1852 5.15625 12.0312 5.31015 12.0312 5.5C12.0312 5.68985 12.1852 5.84375 12.375 5.84375Z" fill="#565656"/>
<path d="M11.3438 7.90625H9.96875V8.59375H11.3438C12.1021 8.59375 12.7188 7.97706 12.7188 7.21875H12.0312C12.0312 7.59791 11.7229 7.90625 11.3438 7.90625Z" fill="#565656"/>
<path d="M10.6562 5.15625H11.3438V6.53125H10.6562V5.15625Z" fill="#565656"/>
<path d="M1.71875 14.7812H2.40625V15.4688H1.71875V14.7812Z" fill="#565656"/>
<path d="M3.09375 14.7812H5.15625V15.4688H3.09375V14.7812Z" fill="#565656"/>
<path d="M1.71875 16.1562H5.15625V16.8438H1.71875V16.1562Z" fill="#565656"/>
<path d="M1.71875 17.5312H5.15625V18.2188H1.71875V17.5312Z" fill="#565656"/>
<path d="M17.7741 17.9757L17.2881 18.4618L18.5909 19.7646L21.5808 16.0273L21.0439 15.5977L18.5338 18.7354L17.7741 17.9757Z" fill="#565656"/>
<path d="M20.2812 20.2812H16.8438V16.8438H18.9062V16.1562H16.1562V18.2188H12.7188V17.875C12.7188 17.7007 12.6923 17.5299 12.6421 17.3666C16.4068 16.6031 19.25 13.2681 19.25 9.28125C19.25 6.16825 17.5343 3.36566 14.7692 1.94356C14.0828 0.977281 12.9573 0.34375 11.6844 0.34375H10.4448C9.44041 0.34375 8.53291 0.827063 7.96331 1.6115C4.84206 2.849 2.75 5.91663 2.75 9.28125C2.75 10.7425 3.13019 12.1557 3.85413 13.4062H1.03125C0.652094 13.4062 0.34375 13.7146 0.34375 14.0938V20.2812C0.34375 20.6604 0.652094 20.9688 1.03125 20.9688H5.84375C6.22291 20.9688 6.53125 20.6604 6.53125 20.2812V18.9062H9.28125V20.625C9.28125 21.1936 9.74394 21.6562 10.3125 21.6562H11.6875C12.2561 21.6562 12.7188 21.1936 12.7188 20.625V18.9062H16.1562V20.9688H20.9688V18.2188H20.2812V20.2812ZM12.0312 17.875V18.2188H9.96875V17.875C9.96875 17.7348 9.999 17.5983 10.053 17.4714C10.3654 17.5068 10.6807 17.5312 11 17.5312C11.3207 17.5312 11.637 17.511 11.9484 17.4752C12.0013 17.601 12.0312 17.7358 12.0312 17.875ZM18.5625 9.28125C18.5625 13.4513 15.17 16.8438 11 16.8438C9.37372 16.8438 7.83372 16.3343 6.53125 15.377V14.4952C7.73438 15.5279 9.29397 16.1562 11 16.1562C14.7909 16.1562 17.875 13.0721 17.875 9.28125C17.875 7.26069 16.9974 5.36697 15.4653 4.05694C15.4588 3.71422 15.4072 3.38284 15.3151 3.06797C17.3412 4.46978 18.5625 6.76534 18.5625 9.28125ZM7.90625 7.21875C7.52709 7.21875 7.21875 6.91041 7.21875 6.53125C7.21875 6.15209 7.52709 5.84375 7.90625 5.84375V7.21875ZM6.61444 4.91941L6.77978 5.74681C6.62406 5.96956 6.53125 6.23941 6.53125 6.53125C6.53125 7.28956 7.14794 7.90625 7.90625 7.90625H7.93375C8.06094 8.78866 8.66697 9.51603 9.48028 9.8175L9.34759 10.3489C7.85263 10.5892 6.60447 11.6332 6.09331 13.036C5.29341 11.9931 4.8125 10.6937 4.8125 9.28125C4.8125 7.63091 5.46356 6.07475 6.61444 4.91941ZM14.0938 5.84375C14.4729 5.84375 14.7812 6.15209 14.7812 6.53125C14.7812 6.91041 14.4729 7.21875 14.0938 7.21875V5.84375ZM14.0662 7.90625H14.0938C14.8521 7.90625 15.4688 7.28956 15.4688 6.53125C15.4688 6.23941 15.3759 5.96956 15.2199 5.74647L15.3852 4.91906C16.5364 6.07475 17.1875 7.63056 17.1875 9.28125C17.1875 10.6937 16.7066 11.9931 15.9067 13.0357C15.3955 11.6332 14.1474 10.5889 12.6524 10.3486L12.5197 9.81716C13.333 9.51603 13.9391 8.78866 14.0662 7.90625ZM10.3125 9.96875H11.6875C11.7411 9.96875 11.7941 9.96428 11.8467 9.96084L11.9855 10.5167L10.9835 11.2578L10.0131 10.5198L10.153 9.9605C10.2059 9.96428 10.2589 9.96875 10.3125 9.96875ZM12.6349 11.0409L12.4623 11.9037L11.683 11.5954L12.4664 11.0158C12.5228 11.0241 12.5795 11.0306 12.6349 11.0409ZM11.0767 12.7188H10.8848L10.7023 12.1712L10.9825 12.0577L11.2606 12.1677L11.0767 12.7188ZM10.2919 11.5954L9.537 11.901L9.36512 11.0412C9.41978 11.0309 9.47547 11.0244 9.53081 11.0168L10.2919 11.5954ZM8.70341 11.2386L9.0255 12.849L10.0636 12.4293L10.2798 13.0773L9.73088 15.3364C8.53359 15.0858 7.46178 14.4887 6.62716 13.6541C6.88806 12.5513 7.67766 11.6566 8.70341 11.2386ZM10.9072 13.4062H11.0577L11.5802 15.4392C11.3891 15.4574 11.1959 15.4688 11 15.4688C10.802 15.4688 10.6067 15.4574 10.4132 15.4392L10.9072 13.4062ZM12.2643 15.3381L11.6827 13.0752L11.9006 12.4211L12.9748 12.8463L13.2963 11.2386C14.322 11.6566 15.1116 12.5513 15.3728 13.6544C14.5372 14.4904 13.464 15.0879 12.2643 15.3381ZM13.4062 7.5625C13.4062 8.51022 12.6352 9.28125 11.6875 9.28125H10.3125C9.36478 9.28125 8.59375 8.51022 8.59375 7.5625V4.8125C8.59375 4.24394 9.05644 3.78125 9.625 3.78125H9.80787C10.1857 4.20303 10.7343 4.46875 11.3438 4.46875H13.0625C13.2519 4.46875 13.4062 4.62309 13.4062 4.8125V7.5625ZM10.4448 1.03125H11.6844C13.3918 1.03125 14.7812 2.42069 14.7812 4.12809C14.7812 4.33194 14.761 4.53613 14.7211 4.7355L14.6159 5.26075C14.4547 5.19406 14.2787 5.15625 14.0938 5.15625V4.8125C14.0938 4.24394 13.6311 3.78125 13.0625 3.78125H11.3438C10.5854 3.78125 9.96875 3.16456 9.96875 2.40625H9.28125C9.28125 2.65237 9.32456 2.88888 9.40397 3.10784C8.56041 3.21647 7.90625 3.93972 7.90625 4.8125V5.15625C7.72131 5.15625 7.54531 5.19406 7.38375 5.26075L7.25416 4.61175C7.23078 4.49419 7.21875 4.37388 7.21875 4.25391C7.21875 3.64237 7.52228 3.07484 8.03103 2.73591L8.18572 2.63278L8.22559 2.53344C8.59066 1.62112 9.46172 1.03125 10.4448 1.03125ZM3.4375 9.28125C3.4375 6.69144 4.79119 4.2955 6.91866 2.92084C6.70691 3.25806 6.57697 3.64306 6.54397 4.04903C5.00603 5.35975 4.125 7.25656 4.125 9.28125C4.125 10.8298 4.64578 12.2557 5.51306 13.4062H4.66572C3.86444 12.1784 3.4375 10.7573 3.4375 9.28125ZM1.03125 20.2812V14.0938H5.84375L5.84409 20.2812H1.03125ZM6.53125 18.2188V16.2178C7.39956 16.7798 8.35519 17.161 9.35962 17.3628C9.30841 17.5271 9.28125 17.6993 9.28125 17.875V18.2188H6.53125ZM12.0312 20.625C12.0312 20.8144 11.8769 20.9688 11.6875 20.9688H10.3125C10.1231 20.9688 9.96875 20.8144 9.96875 20.625V18.9062H12.0312V20.625Z" fill="#565656"/>
<path d="M1.71875 18.9062H5.15625V19.5938H1.71875V18.9062Z" fill="#565656"/>
</svg>
