<svg width="21" height="22" viewBox="0 0 21 22" fill="none" xmlns="http://www.w3.org/2000/svg">
<path d="M19.7695 12.5576V1.97656C19.7695 1.62056 19.4941 1.33203 19.1543 1.33203H16.0371V0.644531C16.0371 0.288528 15.7617 0 15.4219 0C15.0821 0 14.8066 0.288528 14.8066 0.644531V1.33203H12.3457V0.644531C12.3457 0.288528 12.0703 0 11.7305 0C11.3906 0 11.1152 0.288528 11.1152 0.644531V1.33203H8.6543V0.644531C8.6543 0.288528 8.37888 0 8.03906 0C7.69924 0 7.42383 0.288528 7.42383 0.644531V1.33203H4.96289V0.644531C4.96289 0.288528 4.68748 0 4.34766 0C4.00784 0 3.73242 0.288528 3.73242 0.644531V1.33203H0.615234C0.275414 1.33203 0 1.62056 0 1.97656V18.7773C0 19.1333 0.275414 19.4219 0.615234 19.4219H10.8611C11.8558 20.9753 13.5472 22 15.4629 22C18.516 22 21 19.3977 21 16.1992C21 14.8212 20.5386 13.554 19.7695 12.5576ZM3.73242 2.62109V3.26562C3.73242 3.62163 4.00784 3.91016 4.34766 3.91016C4.68748 3.91016 4.96289 3.62163 4.96289 3.26562V2.62109H7.42383V3.26562C7.42383 3.62163 7.69924 3.91016 8.03906 3.91016C8.37888 3.91016 8.6543 3.62163 8.6543 3.26562V2.62109H11.1152V3.26562C11.1152 3.62163 11.3906 3.91016 11.7305 3.91016C12.0703 3.91016 12.3457 3.62163 12.3457 3.26562V2.62109H14.8066V3.26562C14.8066 3.62163 15.0821 3.91016 15.4219 3.91016C15.7617 3.91016 16.0371 3.62163 16.0371 3.26562V2.62109H18.5391V5.19922H1.23047V2.62109H3.73242ZM1.23047 18.1328V6.48828H18.5391V11.3783C17.6587 10.7598 16.6003 10.3984 15.4629 10.3984C13.5188 10.3984 11.8058 11.4537 10.8176 13.0459C10.7344 13.0019 10.6407 12.9766 10.541 12.9766H9.31055C8.97073 12.9766 8.69531 13.2651 8.69531 13.6211C8.69531 13.9771 8.97073 14.2656 9.31055 14.2656H10.2425C10.1036 14.6762 10.0075 15.1079 9.96023 15.5547H9.31055C8.97073 15.5547 8.69531 15.8432 8.69531 16.1992C8.69531 16.5552 8.97073 16.8438 9.31055 16.8438H9.96023C10.0075 17.2906 10.1035 17.7223 10.2425 18.1328H1.23047ZM15.4629 20.7109C13.0882 20.7109 11.1562 18.687 11.1562 16.1992C11.1562 13.7114 13.0882 11.6875 15.4629 11.6875C17.8376 11.6875 19.7695 13.7114 19.7695 16.1992C19.7695 18.687 17.8376 20.7109 15.4629 20.7109Z" fill="#565656"/>
<path d="M17.9238 15.5547H16.0781V13.6211C16.0781 13.2651 15.8027 12.9766 15.4629 12.9766C15.1231 12.9766 14.8477 13.2651 14.8477 13.6211V16.1992C14.8477 16.5552 15.1231 16.8438 15.4629 16.8438H17.9238C18.2636 16.8438 18.5391 16.5552 18.5391 16.1992C18.5391 15.8432 18.2636 15.5547 17.9238 15.5547Z" fill="#565656"/>
<path d="M5.57812 7.82031H4.34766C4.00784 7.82031 3.73242 8.10884 3.73242 8.46484C3.73242 8.82085 4.00784 9.10938 4.34766 9.10938H5.57812C5.91795 9.10938 6.19336 8.82085 6.19336 8.46484C6.19336 8.10884 5.91795 7.82031 5.57812 7.82031Z" fill="#565656"/>
<path d="M5.57812 10.3984H4.34766C4.00784 10.3984 3.73242 10.687 3.73242 11.043C3.73242 11.399 4.00784 11.6875 4.34766 11.6875H5.57812C5.91795 11.6875 6.19336 11.399 6.19336 11.043C6.19336 10.687 5.91795 10.3984 5.57812 10.3984Z" fill="#565656"/>
<path d="M5.57812 12.9766H4.34766C4.00784 12.9766 3.73242 13.2651 3.73242 13.6211C3.73242 13.9771 4.00784 14.2656 4.34766 14.2656H5.57812C5.91795 14.2656 6.19336 13.9771 6.19336 13.6211C6.19336 13.2651 5.91795 12.9766 5.57812 12.9766Z" fill="#565656"/>
<path d="M9.31055 9.10938H10.541C10.8808 9.10938 11.1562 8.82085 11.1562 8.46484C11.1562 8.10884 10.8808 7.82031 10.541 7.82031H9.31055C8.97073 7.82031 8.69531 8.10884 8.69531 8.46484C8.69531 8.82085 8.97073 9.10938 9.31055 9.10938Z" fill="#565656"/>
<path d="M9.31055 11.6875H10.541C10.8808 11.6875 11.1562 11.399 11.1562 11.043C11.1562 10.687 10.8808 10.3984 10.541 10.3984H9.31055C8.97073 10.3984 8.69531 10.687 8.69531 11.043C8.69531 11.399 8.97073 11.6875 9.31055 11.6875Z" fill="#565656"/>
<path d="M5.57812 15.5547H4.34766C4.00784 15.5547 3.73242 15.8432 3.73242 16.1992C3.73242 16.5552 4.00784 16.8438 4.34766 16.8438H5.57812C5.91795 16.8438 6.19336 16.5552 6.19336 16.1992C6.19336 15.8432 5.91795 15.5547 5.57812 15.5547Z" fill="#565656"/>
<path d="M14.2324 9.10938H15.4629C15.8027 9.10938 16.0781 8.82085 16.0781 8.46484C16.0781 8.10884 15.8027 7.82031 15.4629 7.82031H14.2324C13.8926 7.82031 13.6172 8.10884 13.6172 8.46484C13.6172 8.82085 13.8926 9.10938 14.2324 9.10938Z" fill="#565656"/>
</svg>
