<svg width="19" height="22" viewBox="0 0 19 22" fill="none" xmlns="http://www.w3.org/2000/svg">
<path d="M17.2188 3.78125H16.3281V0.34375H2.67188V3.78125H1.78125C0.962766 3.78125 0.296875 4.55228 0.296875 5.5V15.8125C0.296875 16.7602 0.962766 17.5312 1.78125 17.5312H6.94153L6.34778 18.9062H5.9375C5.11902 18.9062 4.45312 19.6773 4.45312 20.625V21.6562H14.5469V20.625C14.5469 19.6773 13.881 18.9062 13.0625 18.9062H12.6522L12.0585 17.5312H17.2188C18.0372 17.5312 18.7031 16.7602 18.7031 15.8125V5.5C18.7031 4.55228 18.0372 3.78125 17.2188 3.78125ZM16.3281 13.4062V5.84375H16.9219V14.7812H6.35728L5.9375 14.2952C5.82528 14.1652 5.67625 14.0938 5.51772 14.0938H2.07812V5.84375H2.67188V13.4062H16.3281ZM3.26562 3.78125H15.7344V12.7188H3.26562V3.78125ZM15.7344 1.03125V3.09375H3.26562V1.03125H15.7344ZM13.9531 20.625V20.9688H5.04688V20.625C5.04688 20.0564 5.44647 19.5938 5.9375 19.5938H13.0625C13.5535 19.5938 13.9531 20.0564 13.9531 20.625ZM11.9884 18.9062H7.01159L7.60534 17.5312H11.3947L11.9884 18.9062ZM18.1094 15.8125C18.1094 16.3811 17.7098 16.8438 17.2188 16.8438H1.78125C1.29022 16.8438 0.890625 16.3811 0.890625 15.8125V5.5C0.890625 4.93144 1.29022 4.46875 1.78125 4.46875H2.67188V5.15625H2.07812C1.75067 5.15625 1.48438 5.46459 1.48438 5.84375V14.0938C1.48438 14.4729 1.75067 14.7812 2.07812 14.7812H5.51772L5.9375 15.2673C6.04972 15.3973 6.19875 15.4688 6.35728 15.4688H16.9219C17.2493 15.4688 17.5156 15.1604 17.5156 14.7812V5.84375C17.5156 5.46459 17.2493 5.15625 16.9219 5.15625H16.3281V4.46875H17.2188C17.7098 4.46875 18.1094 4.93144 18.1094 5.5V15.8125Z" fill="#565656"/>
<path d="M2.07812 15.4688H2.67188V16.1562H2.07812V15.4688Z" fill="#565656"/>
<path d="M3.26562 15.4688H3.85938V16.1562H3.26562V15.4688Z" fill="#565656"/>
<path d="M4.45312 15.4688H5.04688V16.1562H4.45312V15.4688Z" fill="#565656"/>
<path d="M3.85938 1.71875H4.45312V2.40625H3.85938V1.71875Z" fill="#565656"/>
<path d="M5.04688 1.71875H5.64062V2.40625H5.04688V1.71875Z" fill="#565656"/>
<path d="M6.23438 1.71875H6.82812V2.40625H6.23438V1.71875Z" fill="#565656"/>
<path d="M11.5781 4.46875H15.1406V5.15625H11.5781V4.46875Z" fill="#565656"/>
<path d="M14.5469 5.84375H15.1406V6.53125H14.5469V5.84375Z" fill="#565656"/>
<path d="M13.3594 5.84375H13.9531V6.53125H13.3594V5.84375Z" fill="#565656"/>
<path d="M11.5781 5.84375H12.7656V6.53125H11.5781V5.84375Z" fill="#565656"/>
<path d="M11.5781 7.21875H15.1406V7.90625H11.5781V7.21875Z" fill="#565656"/>
<path d="M14.5469 8.59375H15.1406V9.28125H14.5469V8.59375Z" fill="#565656"/>
<path d="M13.3594 8.59375H13.9531V9.28125H13.3594V8.59375Z" fill="#565656"/>
<path d="M11.5781 8.59375H12.7656V9.28125H11.5781V8.59375Z" fill="#565656"/>
<path d="M11.5781 9.96875H15.1406V10.6562H11.5781V9.96875Z" fill="#565656"/>
<path d="M14.5469 11.3438H15.1406V12.0312H14.5469V11.3438Z" fill="#565656"/>
<path d="M13.3594 11.3438H13.9531V12.0312H13.3594V11.3438Z" fill="#565656"/>
<path d="M11.5781 11.3438H12.7656V12.0312H11.5781V11.3438Z" fill="#565656"/>
<path d="M3.85938 7.90625H8.60938V4.46875H3.85938V7.90625ZM4.45312 5.15625H8.01562V7.21875H4.45312V5.15625Z" fill="#565656"/>
<path d="M3.85938 8.59375H4.45312V9.28125H3.85938V8.59375Z" fill="#565656"/>
<path d="M5.04688 8.59375H8.60938V9.28125H5.04688V8.59375Z" fill="#565656"/>
<path d="M3.85938 9.96875H8.60938V10.6562H3.85938V9.96875Z" fill="#565656"/>
<path d="M3.85938 11.3438H8.60938V12.0312H3.85938V11.3438Z" fill="#565656"/>
<path d="M9.20312 12.0312H10.9844V9.96875H9.20312V12.0312ZM9.79688 10.6562H10.3906V11.3438H9.79688V10.6562Z" fill="#565656"/>
<path d="M9.20312 9.28125H10.9844V7.21875H9.20312V9.28125ZM9.79688 7.90625H10.3906V8.59375H9.79688V7.90625Z" fill="#565656"/>
<path d="M9.20312 6.53125H10.9844V4.46875H9.20312V6.53125ZM9.79688 5.15625H10.3906V5.84375H9.79688V5.15625Z" fill="#565656"/>
</svg>
