<svg width="16" height="22" viewBox="0 0 16 22" fill="none" xmlns="http://www.w3.org/2000/svg">
<path d="M14.875 15.125C14.1857 15.125 13.625 14.5082 13.625 13.75V8.9375C13.625 7.28071 13.0374 5.72417 11.9704 4.5546C11.3127 3.83359 10.5217 3.31375 9.65887 3.02225C9.7966 2.73539 9.875 2.40891 9.875 2.0625C9.875 0.925246 9.03387 0 8 0C6.96613 0 6.125 0.925246 6.125 2.0625C6.125 2.41089 6.20422 2.73921 6.34348 3.02728C4.04875 3.81571 2.375 6.19652 2.375 8.99723V13.75C2.375 14.5082 1.81426 15.125 1.125 15.125C0.779844 15.125 0.5 15.4328 0.5 15.8125V18.5625C0.5 18.9422 0.779844 19.25 1.125 19.25H5.83496C5.82035 19.363 5.8125 19.4777 5.8125 19.5938C5.8125 20.9205 6.79383 22 8 22C9.20617 22 10.1875 20.9205 10.1875 19.5938C10.1875 19.4777 10.1797 19.363 10.165 19.25H14.875C15.2202 19.25 15.5 18.9422 15.5 18.5625V15.8125C15.5 15.4328 15.2202 15.125 14.875 15.125ZM8 1.375C8.34461 1.375 8.625 1.68343 8.625 2.0625C8.625 2.44157 8.34461 2.75 8 2.75C7.65539 2.75 7.375 2.44157 7.375 2.0625C7.375 1.68343 7.65539 1.375 8 1.375ZM8.9375 19.5938C8.9375 20.1624 8.51695 20.625 8 20.625C7.48305 20.625 7.0625 20.1624 7.0625 19.5938C7.0625 19.4749 7.08055 19.3592 7.11566 19.25H8.8843C8.91945 19.3592 8.9375 19.4749 8.9375 19.5938ZM14.25 17.875H9.25H6.75H1.75V16.413C2.82707 16.107 3.625 15.0291 3.625 13.75V8.99723C3.625 6.31997 5.58055 4.13432 7.98426 4.12504C7.98957 4.12504 7.99481 4.125 8.00008 4.125C9.16586 4.125 10.262 4.62305 11.0881 5.52857C11.918 6.43822 12.375 7.64891 12.375 8.9375V13.75C12.375 15.0291 13.1729 16.107 14.25 16.413V17.875Z" fill="#565656"/>
</svg>
